# Created by FreeCAD <https://www.freecad.org>
v 7.673083 -1.401354 0.000000
v 9.962704 -0.862864 0.000000
v 7.673083 -1.401354 5.000000
v 9.962704 -0.862864 5.000000
v 7.625279 -1.641680 0.000000
v 7.625279 -1.641680 5.000000
v 9.962704 0.862864 0.000000
v 9.962704 0.862864 5.000000
v -7.654832 -6.434559 0.000000
v -6.416596 -4.434783 0.000000
v -6.434559 -7.654832 0.000000
v -4.434783 -6.416596 0.000000
v -9.534542 -3.015380 0.000000
v -6.552730 -4.231044 0.000000
v -8.874134 -4.609744 0.000000
v -4.609744 -8.874134 0.000000
v -4.231044 -6.552730 0.000000
v -3.015380 -9.534542 0.000000
v -1.641680 -7.625279 0.000000
v -7.625279 -1.641680 0.000000
v -9.962704 0.862864 0.000000
v -7.673083 1.401354 0.000000
v -9.962704 -0.862864 0.000000
v -7.673083 -1.401354 0.000000
v -1.401354 -7.673083 0.000000
v 1.401354 -7.673083 0.000000
v -0.862864 -9.962704 0.000000
v 0.862864 -9.962704 0.000000
v -1.536121 -1.574907 0.000000
v -1.612714 -1.496380 0.000000
v -1.455709 -1.649519 0.000000
v -1.685298 -1.414133 0.000000
v -1.371678 -1.720029 0.000000
v -1.753692 -1.328370 0.000000
v -1.284236 -1.786264 0.000000
v -1.817725 -1.239304 0.000000
v -1.193602 -1.848057 0.000000
v -1.877240 -1.147157 0.000000
v -1.100000 -1.905256 0.000000
v -1.932087 -1.052159 0.000000
v -1.003663 -1.957718 0.000000
v -1.982131 -0.954544 0.000000
v -0.904832 -2.005313 0.000000
v -2.027248 -0.854557 0.000000
v -0.803750 -2.047922 0.000000
v -2.067324 -0.752444 0.000000
v -0.700671 -2.085440 0.000000
v -2.102260 -0.648461 0.000000
v -0.595849 -2.117773 0.000000
v -2.131970 -0.542866 0.000000
v -0.489546 -2.144841 0.000000
v -2.156379 -0.435922 0.000000
v -0.382026 -2.166577 0.000000
v -2.175428 -0.327893 0.000000
v -0.273556 -2.182926 0.000000
v -2.189068 -0.219049 0.000000
v -0.164406 -2.193848 0.000000
v -8.874134 4.609744 0.000000
v -6.552730 4.231044 0.000000
v -9.534542 3.015380 0.000000
v -7.625279 1.641680 0.000000
v 1.641680 -7.625279 0.000000
v 4.231044 -6.552730 0.000000
v 3.015380 -9.534542 0.000000
v 4.609744 -8.874134 0.000000
v -2.197265 -0.109661 0.000000
v -0.054848 -2.199316 0.000000
v -2.200000 -0.000000 0.000000
v 0.054848 -2.199316 0.000000
v -2.197265 0.109661 0.000000
v 0.164406 -2.193848 0.000000
v -2.189068 0.219049 0.000000
v 0.273556 -2.182926 0.000000
v -2.175428 0.327893 0.000000
v 0.382026 -2.166577 0.000000
v -2.156379 0.435922 0.000000
v 0.489546 -2.144841 0.000000
v -2.131970 0.542866 0.000000
v 0.595849 -2.117773 0.000000
v -2.102260 0.648461 0.000000
v 0.700671 -2.085440 0.000000
v -2.067324 0.752444 0.000000
v 0.803750 -2.047922 0.000000
v -2.027248 0.854557 0.000000
v 0.904832 -2.005313 0.000000
v -1.982131 0.954544 0.000000
v 1.003663 -1.957718 0.000000
v -1.932087 1.052159 0.000000
v 1.100000 -1.905256 0.000000
v -1.877240 1.147157 0.000000
v 1.193602 -1.848057 0.000000
v 4.434783 -6.416596 0.000000
v -1.817725 1.239304 0.000000
v -6.416596 4.434783 0.000000
v 1.284236 -1.786264 0.000000
v -1.753692 1.328370 0.000000
v 1.371678 -1.720029 0.000000
v -1.685298 1.414133 0.000000
v 1.455709 -1.649519 0.000000
v -1.612714 1.496380 0.000000
v 1.536121 -1.574907 0.000000
v -1.536121 1.574907 0.000000
v 7.654832 -6.434559 0.000000
v 6.434559 -7.654832 0.000000
v -1.284236 1.786264 0.000000
v -4.434783 6.416596 0.000000
v -1.193602 1.848057 0.000000
v -1.371678 1.720029 0.000000
v -1.455709 1.649519 0.000000
v -6.434559 7.654832 0.000000
v -7.654832 6.434559 0.000000
v 6.416596 -4.434783 0.000000
v 1.612714 -1.496380 0.000000
v 1.685298 -1.414133 0.000000
v 1.753692 -1.328370 0.000000
v 1.817725 -1.239304 0.000000
v -0.904832 2.005313 0.000000
v -4.231044 6.552730 0.000000
v -0.803750 2.047922 0.000000
v -1.003663 1.957718 0.000000
v -1.100000 1.905256 0.000000
v 6.552730 -4.231044 0.000000
v 1.877240 -1.147157 0.000000
v 1.932087 -1.052159 0.000000
v 1.982131 -0.954544 0.000000
v 2.027248 -0.854557 0.000000
v -0.595849 2.117773 0.000000
v -1.641680 7.625279 0.000000
v -0.489546 2.144841 0.000000
v -0.700671 2.085440 0.000000
v -0.382026 2.166577 0.000000
v 2.067324 -0.752444 0.000000
v 2.102260 -0.648461 0.000000
v 2.131970 -0.542866 0.000000
v 2.156379 -0.435922 0.000000
v 2.175428 -0.327893 0.000000
v 2.189068 -0.219049 0.000000
v 2.197265 -0.109661 0.000000
v 2.200000 -0.000000 0.000000
v -1.401354 7.673083 0.000000
v -0.054848 2.199316 0.000000
v 0.054848 2.199316 0.000000
v -0.164406 2.193848 0.000000
v -0.273556 2.182926 0.000000
v -4.609744 8.874134 0.000000
v -3.015380 9.534542 0.000000
v 9.534542 -3.015380 0.000000
v 8.874134 -4.609744 0.000000
v 7.673083 1.401354 0.000000
v 2.197265 0.109661 0.000000
v 2.189068 0.219049 0.000000
v 2.175428 0.327893 0.000000
v 2.156379 0.435922 0.000000
v 1.401354 7.673083 0.000000
v 0.273556 2.182926 0.000000
v 0.382026 2.166577 0.000000
v 0.164406 2.193848 0.000000
v -0.862864 9.962704 0.000000
v 7.625279 1.641680 0.000000
v 2.131970 0.542866 0.000000
v 2.102260 0.648461 0.000000
v 2.067324 0.752444 0.000000
v 2.027248 0.854557 0.000000
v 1.641680 7.625279 0.000000
v 0.700671 2.085440 0.000000
v 0.803750 2.047922 0.000000
v 0.595849 2.117773 0.000000
v 0.489546 2.144841 0.000000
v 4.231044 6.552730 0.000000
v 1.100000 1.905256 0.000000
v 1.193602 1.848057 0.000000
v 1.003663 1.957718 0.000000
v 0.904832 2.005313 0.000000
v 1.982131 0.954544 0.000000
v 6.552730 4.231044 0.000000
v 1.932087 1.052159 0.000000
v 1.877240 1.147157 0.000000
v 1.817725 1.239304 0.000000
v 0.862864 9.962704 0.000000
v 1.753692 1.328370 0.000000
v 6.416596 4.434783 0.000000
v 1.685298 1.414133 0.000000
v 1.612714 1.496380 0.000000
v 1.536121 1.574907 0.000000
v 4.434783 6.416596 0.000000
v 1.455709 1.649519 0.000000
v 1.371678 1.720029 0.000000
v 1.284236 1.786264 0.000000
v 3.015380 9.534542 0.000000
v 9.534542 3.015380 0.000000
v 8.874134 4.609744 0.000000
v 4.609744 8.874134 0.000000
v 6.434559 7.654832 0.000000
v 7.654832 6.434559 0.000000
v -6.416596 -4.434783 5.000000
v -7.654832 -6.434559 5.000000
v -6.434559 -7.654832 5.000000
v -4.434783 -6.416596 5.000000
v -6.552730 -4.231044 5.000000
v -9.534542 -3.015380 5.000000
v -8.874134 -4.609744 5.000000
v -4.231044 -6.552730 5.000000
v -4.609744 -8.874134 5.000000
v -3.015380 -9.534542 5.000000
v -1.641680 -7.625279 5.000000
v -7.625279 -1.641680 5.000000
v -7.673083 1.401354 5.000000
v -9.962704 0.862864 5.000000
v -9.962704 -0.862864 5.000000
v -7.673083 -1.401354 5.000000
v 1.401354 -7.673083 5.000000
v -1.401354 -7.673083 5.000000
v -0.862864 -9.962704 5.000000
v 0.862864 -9.962704 5.000000
v -1.536121 -1.574907 5.000000
v -1.612714 -1.496380 5.000000
v -1.455709 -1.649519 5.000000
v -1.685298 -1.414133 5.000000
v -1.371678 -1.720029 5.000000
v -1.753692 -1.328370 5.000000
v -1.284236 -1.786264 5.000000
v -1.817725 -1.239304 5.000000
v -1.193602 -1.848057 5.000000
v -1.877240 -1.147157 5.000000
v -1.100000 -1.905256 5.000000
v -1.932087 -1.052159 5.000000
v -1.003663 -1.957718 5.000000
v -1.982131 -0.954544 5.000000
v -0.904832 -2.005313 5.000000
v -2.027248 -0.854557 5.000000
v -0.803750 -2.047922 5.000000
v -2.067324 -0.752444 5.000000
v -0.700671 -2.085440 5.000000
v -2.102260 -0.648461 5.000000
v -0.595849 -2.117773 5.000000
v -2.131970 -0.542866 5.000000
v -0.489546 -2.144841 5.000000
v -2.156379 -0.435922 5.000000
v -0.382026 -2.166577 5.000000
v -2.175428 -0.327893 5.000000
v -0.273556 -2.182926 5.000000
v -2.189068 -0.219049 5.000000
v -0.164406 -2.193848 5.000000
v -6.552730 4.231044 5.000000
v -8.874134 4.609744 5.000000
v -9.534542 3.015380 5.000000
v -7.625279 1.641680 5.000000
v 4.231044 -6.552730 5.000000
v 1.641680 -7.625279 5.000000
v 3.015380 -9.534542 5.000000
v 4.609744 -8.874134 5.000000
v -2.197265 -0.109661 5.000000
v -0.054848 -2.199316 5.000000
v -2.200000 -0.000000 5.000000
v 0.054848 -2.199316 5.000000
v -2.197265 0.109661 5.000000
v 0.164406 -2.193848 5.000000
v -2.189068 0.219049 5.000000
v 0.273556 -2.182926 5.000000
v -2.175428 0.327893 5.000000
v 0.382026 -2.166577 5.000000
v -2.156379 0.435922 5.000000
v 0.489546 -2.144841 5.000000
v -2.131970 0.542866 5.000000
v 0.595849 -2.117773 5.000000
v -2.102260 0.648461 5.000000
v 0.700671 -2.085440 5.000000
v -2.067324 0.752444 5.000000
v 0.803750 -2.047922 5.000000
v -2.027248 0.854557 5.000000
v 0.904832 -2.005313 5.000000
v -1.982131 0.954544 5.000000
v 1.003663 -1.957718 5.000000
v -1.932087 1.052159 5.000000
v 1.100000 -1.905256 5.000000
v -1.877240 1.147157 5.000000
v 1.193602 -1.848057 5.000000
v 4.434783 -6.416596 5.000000
v -1.817725 1.239304 5.000000
v -6.416596 4.434783 5.000000
v 1.284236 -1.786264 5.000000
v -1.753692 1.328370 5.000000
v 1.371678 -1.720029 5.000000
v -1.685298 1.414133 5.000000
v 1.455709 -1.649519 5.000000
v -1.612714 1.496380 5.000000
v 1.536121 -1.574907 5.000000
v -1.536121 1.574907 5.000000
v 7.654832 -6.434559 5.000000
v 6.434559 -7.654832 5.000000
v -4.434783 6.416596 5.000000
v -1.284236 1.786264 5.000000
v -1.193602 1.848057 5.000000
v -1.371678 1.720029 5.000000
v -1.455709 1.649519 5.000000
v -6.434559 7.654832 5.000000
v -7.654832 6.434559 5.000000
v 6.416596 -4.434783 5.000000
v 1.612714 -1.496380 5.000000
v 1.685298 -1.414133 5.000000
v 1.753692 -1.328370 5.000000
v 1.817725 -1.239304 5.000000
v -4.231044 6.552730 5.000000
v -0.904832 2.005313 5.000000
v -0.803750 2.047922 5.000000
v -1.003663 1.957718 5.000000
v -1.100000 1.905256 5.000000
v 6.552730 -4.231044 5.000000
v 1.877240 -1.147157 5.000000
v 1.932087 -1.052159 5.000000
v 1.982131 -0.954544 5.000000
v 2.027248 -0.854557 5.000000
v -1.641680 7.625279 5.000000
v -0.595849 2.117773 5.000000
v -0.489546 2.144841 5.000000
v -0.700671 2.085440 5.000000
v -0.382026 2.166577 5.000000
v 2.067324 -0.752444 5.000000
v 2.102260 -0.648461 5.000000
v 2.131970 -0.542866 5.000000
v 2.156379 -0.435922 5.000000
v 2.175428 -0.327893 5.000000
v 2.189068 -0.219049 5.000000
v 2.197265 -0.109661 5.000000
v 2.200000 -0.000000 5.000000
v -1.401354 7.673083 5.000000
v -0.054848 2.199316 5.000000
v 0.054848 2.199316 5.000000
v -0.164406 2.193848 5.000000
v -0.273556 2.182926 5.000000
v -3.015380 9.534542 5.000000
v -4.609744 8.874134 5.000000
v 9.534542 -3.015380 5.000000
v 8.874134 -4.609744 5.000000
v 7.673083 1.401354 5.000000
v 2.197265 0.109661 5.000000
v 2.189068 0.219049 5.000000
v 2.175428 0.327893 5.000000
v 2.156379 0.435922 5.000000
v 1.401354 7.673083 5.000000
v 0.273556 2.182926 5.000000
v 0.382026 2.166577 5.000000
v 0.164406 2.193848 5.000000
v -0.862864 9.962704 5.000000
v 7.625279 1.641680 5.000000
v 2.131970 0.542866 5.000000
v 2.102260 0.648461 5.000000
v 2.067324 0.752444 5.000000
v 2.027248 0.854557 5.000000
v 1.641680 7.625279 5.000000
v 0.700671 2.085440 5.000000
v 0.803750 2.047922 5.000000
v 0.595849 2.117773 5.000000
v 0.489546 2.144841 5.000000
v 4.231044 6.552730 5.000000
v 1.100000 1.905256 5.000000
v 1.193602 1.848057 5.000000
v 1.003663 1.957718 5.000000
v 0.904832 2.005313 5.000000
v 6.552730 4.231044 5.000000
v 1.982131 0.954544 5.000000
v 1.932087 1.052159 5.000000
v 1.877240 1.147157 5.000000
v 1.817725 1.239304 5.000000
v 0.862864 9.962704 5.000000
v 6.416596 4.434783 5.000000
v 1.753692 1.328370 5.000000
v 1.685298 1.414133 5.000000
v 1.612714 1.496380 5.000000
v 1.536121 1.574907 5.000000
v 4.434783 6.416596 5.000000
v 1.455709 1.649519 5.000000
v 1.371678 1.720029 5.000000
v 1.284236 1.786264 5.000000
v 3.015380 9.534542 5.000000
v 9.534542 3.015380 5.000000
v 8.874134 4.609744 5.000000
v 4.609744 8.874134 5.000000
v 7.654832 6.434559 5.000000
v 6.434559 7.654832 5.000000
vn 0.228941 -0.973440 0.000000
vn 0.228941 -0.973440 0.000000
vn 0.980785 -0.195091 0.000000
vn 0.980785 -0.195091 0.000000
vn 1.000000 0.000000 0.000000
vn 1.000000 -0.000000 0.000000
vn 0.000000 0.000000 -1.000000
vn 0.000000 -0.000000 -1.000000
vn 0.000000 0.000000 -1.000000
vn 0.000000 0.000000 -1.000000
vn 0.000000 0.000000 -1.000000
vn 0.000000 0.000000 -1.000000
vn 0.000000 0.000000 -1.000000
vn 0.000000 0.000000 -1.000000
vn 0.000000 0.000000 -1.000000
vn 0.000000 0.000000 -1.000000
vn 0.000000 0.000000 -1.000000
vn 0.000000 0.000000 -1.000000
vn 0.000000 -0.000000 -1.000000
vn 0.000000 0.000000 -1.000000
vn 0.000000 -0.000000 -1.000000
vn 0.000000 0.000000 -1.000000
vn 0.000000 -0.000000 -1.000000
vn 0.000000 0.000000 -1.000000
vn 0.000000 0.000000 -1.000000
vn 0.000000 0.000000 -1.000000
vn 0.000000 -0.000000 -1.000000
vn 0.000000 0.000000 -1.000000
vn 0.000000 -0.000000 -1.000000
vn 0.000000 0.000000 -1.000000
vn 0.000000 -0.000000 -1.000000
vn 0.000000 0.000000 -1.000000
vn 0.000000 -0.000000 -1.000000
vn 0.000000 0.000000 -1.000000
vn 0.000000 0.000000 -1.000000
vn 0.000000 0.000000 -1.000000
vn 0.000000 -0.000000 -1.000000
vn 0.000000 0.000000 -1.000000
vn 0.000000 -0.000000 -1.000000
vn 0.000000 0.000000 -1.000000
vn 0.000000 -0.000000 -1.000000
vn 0.000000 0.000000 -1.000000
vn 0.000000 -0.000000 -1.000000
vn 0.000000 0.000000 -1.000000
vn 0.000000 0.000000 -1.000000
vn 0.000000 0.000000 -1.000000
vn 0.000000 -0.000000 -1.000000
vn 0.000000 0.000000 -1.000000
vn 0.000000 -0.000000 -1.000000
vn 0.000000 0.000000 -1.000000
vn 0.000000 -0.000000 -1.000000
vn 0.000000 -0.000000 -1.000000
vn 0.000000 0.000000 -1.000000
vn 0.000000 0.000000 -1.000000
vn 0.000000 0.000000 -1.000000
vn 0.000000 0.000000 -1.000000
vn 0.000000 0.000000 -1.000000
vn 0.000000 -0.000000 -1.000000
vn 0.000000 0.000000 -1.000000
vn 0.000000 0.000000 -1.000000
vn 0.000000 0.000000 -1.000000
vn 0.000000 0.000000 -1.000000
vn 0.000000 0.000000 -1.000000
vn 0.000000 0.000000 -1.000000
vn 0.000000 0.000000 -1.000000
vn 0.000000 0.000000 -1.000000
vn 0.000000 0.000000 -1.000000
vn 0.000000 0.000000 -1.000000
vn 0.000000 0.000000 -1.000000
vn 0.000000 -0.000000 -1.000000
vn 0.000000 0.000000 -1.000000
vn 0.000000 0.000000 -1.000000
vn 0.000000 0.000000 -1.000000
vn 0.000000 0.000000 -1.000000
vn 0.000000 0.000000 -1.000000
vn 0.000000 0.000000 -1.000000
vn 0.000000 0.000000 -1.000000
vn 0.000000 0.000000 -1.000000
vn 0.000000 -0.000000 -1.000000
vn 0.000000 0.000000 -1.000000
vn 0.000000 0.000000 -1.000000
vn 0.000000 0.000000 -1.000000
vn 0.000000 0.000000 -1.000000
vn 0.000000 0.000000 -1.000000
vn 0.000000 0.000000 -1.000000
vn 0.000000 0.000000 -1.000000
vn 0.000000 0.000000 -1.000000
vn 0.000000 0.000000 -1.000000
vn 0.000000 0.000000 -1.000000
vn 0.000000 -0.000000 -1.000000
vn 0.000000 0.000000 -1.000000
vn 0.000000 0.000000 -1.000000
vn 0.000000 0.000000 -1.000000
vn 0.000000 0.000000 -1.000000
vn 0.000000 0.000000 -1.000000
vn 0.000000 0.000000 -1.000000
vn 0.000000 0.000000 -1.000000
vn 0.000000 0.000000 -1.000000
vn 0.000000 0.000000 -1.000000
vn 0.000000 0.000000 -1.000000
vn 0.000000 0.000000 -1.000000
vn 0.000000 0.000000 -1.000000
vn 0.000000 0.000000 -1.000000
vn 0.000000 -0.000000 -1.000000
vn 0.000000 0.000000 -1.000000
vn 0.000000 0.000000 -1.000000
vn 0.000000 0.000000 -1.000000
vn 0.000000 -0.000000 -1.000000
vn 0.000000 -0.000000 -1.000000
vn 0.000000 -0.000000 -1.000000
vn 0.000000 -0.000000 -1.000000
vn 0.000000 0.000000 -1.000000
vn 0.000000 0.000000 -1.000000
vn 0.000000 0.000000 -1.000000
vn 0.000000 0.000000 -1.000000
vn 0.000000 0.000000 -1.000000
vn 0.000000 0.000000 -1.000000
vn 0.000000 0.000000 -1.000000
vn 0.000000 -0.000000 -1.000000
vn 0.000000 -0.000000 -1.000000
vn 0.000000 -0.000000 -1.000000
vn 0.000000 -0.000000 -1.000000
vn 0.000000 0.000000 -1.000000
vn 0.000000 0.000000 -1.000000
vn 0.000000 0.000000 -1.000000
vn 0.000000 0.000000 -1.000000
vn 0.000000 0.000000 -1.000000
vn 0.000000 -0.000000 -1.000000
vn 0.000000 -0.000000 -1.000000
vn 0.000000 -0.000000 -1.000000
vn 0.000000 -0.000000 -1.000000
vn 0.000000 0.000000 -1.000000
vn 0.000000 -0.000000 -1.000000
vn 0.000000 -0.000000 -1.000000
vn 0.000000 -0.000000 -1.000000
vn 0.000000 -0.000000 -1.000000
vn 0.000000 0.000000 -1.000000
vn 0.000000 0.000000 -1.000000
vn 0.000000 0.000000 -1.000000
vn 0.000000 0.000000 -1.000000
vn 0.000000 0.000000 -1.000000
vn 0.000000 0.000000 -1.000000
vn 0.000000 0.000000 -1.000000
vn 0.000000 0.000000 -1.000000
vn 0.000000 -0.000000 -1.000000
vn 0.000000 0.000000 -1.000000
vn 0.000000 0.000000 -1.000000
vn 0.000000 0.000000 -1.000000
vn 0.000000 0.000000 -1.000000
vn 0.000000 0.000000 -1.000000
vn 0.000000 0.000000 -1.000000
vn 0.000000 0.000000 -1.000000
vn 0.000000 0.000000 -1.000000
vn 0.000000 0.000000 -1.000000
vn 0.000000 0.000000 -1.000000
vn 0.000000 0.000000 -1.000000
vn 0.000000 0.000000 -1.000000
vn 0.000000 0.000000 -1.000000
vn 0.000000 0.000000 -1.000000
vn 0.000000 0.000000 -1.000000
vn 0.000000 0.000000 -1.000000
vn 0.000000 0.000000 -1.000000
vn 0.000000 -0.000000 -1.000000
vn 0.000000 0.000000 -1.000000
vn 0.000000 0.000000 -1.000000
vn 0.000000 0.000000 -1.000000
vn 0.000000 0.000000 -1.000000
vn 0.000000 -0.000000 -1.000000
vn 0.000000 0.000000 -1.000000
vn 0.000000 0.000000 -1.000000
vn 0.000000 0.000000 -1.000000
vn 0.000000 0.000000 -1.000000
vn 0.000000 0.000000 -1.000000
vn 0.000000 0.000000 -1.000000
vn 0.000000 0.000000 -1.000000
vn 0.000000 0.000000 -1.000000
vn 0.000000 0.000000 -1.000000
vn 0.000000 0.000000 -1.000000
vn 0.000000 0.000000 -1.000000
vn 0.000000 0.000000 -1.000000
vn 0.000000 0.000000 -1.000000
vn 0.000000 0.000000 -1.000000
vn 0.000000 0.000000 -1.000000
vn 0.000000 0.000000 -1.000000
vn 0.000000 0.000000 -1.000000
vn 0.000000 0.000000 -1.000000
vn 0.000000 0.000000 -1.000000
vn 0.000000 0.000000 -1.000000
vn 0.000000 0.000000 -1.000000
vn 0.000000 -0.000000 -1.000000
vn 0.000000 0.000000 -1.000000
vn 0.000000 0.000000 -1.000000
vn 0.000000 0.000000 -1.000000
vn 0.000000 0.000000 -1.000000
vn 0.000000 -0.000000 -1.000000
vn 0.000000 0.000000 -1.000000
vn 0.000000 0.000000 1.000000
vn 0.000000 0.000000 1.000000
vn 0.000000 0.000000 1.000000
vn 0.000000 0.000000 1.000000
vn 0.000000 0.000000 1.000000
vn 0.000000 0.000000 1.000000
vn 0.000000 0.000000 1.000000
vn 0.000000 0.000000 1.000000
vn 0.000000 0.000000 1.000000
vn 0.000000 0.000000 1.000000
vn 0.000000 0.000000 1.000000
vn 0.000000 0.000000 1.000000
vn 0.000000 0.000000 1.000000
vn 0.000000 0.000000 1.000000
vn 0.000000 0.000000 1.000000
vn 0.000000 0.000000 1.000000
vn 0.000000 0.000000 1.000000
vn 0.000000 0.000000 1.000000
vn 0.000000 0.000000 1.000000
vn 0.000000 0.000000 1.000000
vn 0.000000 0.000000 1.000000
vn 0.000000 0.000000 1.000000
vn 0.000000 0.000000 1.000000
vn 0.000000 0.000000 1.000000
vn 0.000000 0.000000 1.000000
vn 0.000000 0.000000 1.000000
vn 0.000000 0.000000 1.000000
vn 0.000000 0.000000 1.000000
vn 0.000000 0.000000 1.000000
vn 0.000000 0.000000 1.000000
vn 0.000000 0.000000 1.000000
vn 0.000000 0.000000 1.000000
vn 0.000000 0.000000 1.000000
vn 0.000000 0.000000 1.000000
vn 0.000000 0.000000 1.000000
vn 0.000000 0.000000 1.000000
vn 0.000000 0.000000 1.000000
vn 0.000000 0.000000 1.000000
vn 0.000000 0.000000 1.000000
vn 0.000000 0.000000 1.000000
vn 0.000000 0.000000 1.000000
vn 0.000000 0.000000 1.000000
vn 0.000000 0.000000 1.000000
vn 0.000000 0.000000 1.000000
vn 0.000000 0.000000 1.000000
vn 0.000000 0.000000 1.000000
vn 0.000000 0.000000 1.000000
vn 0.000000 0.000000 1.000000
vn 0.000000 0.000000 1.000000
vn 0.000000 0.000000 1.000000
vn 0.000000 0.000000 1.000000
vn 0.000000 0.000000 1.000000
vn 0.000000 0.000000 1.000000
vn 0.000000 0.000000 1.000000
vn 0.000000 0.000000 1.000000
vn 0.000000 0.000000 1.000000
vn 0.000000 0.000000 1.000000
vn 0.000000 0.000000 1.000000
vn 0.000000 0.000000 1.000000
vn 0.000000 0.000000 1.000000
vn 0.000000 0.000000 1.000000
vn 0.000000 0.000000 1.000000
vn 0.000000 0.000000 1.000000
vn 0.000000 0.000000 1.000000
vn 0.000000 0.000000 1.000000
vn 0.000000 0.000000 1.000000
vn 0.000000 0.000000 1.000000
vn 0.000000 0.000000 1.000000
vn 0.000000 0.000000 1.000000
vn 0.000000 0.000000 1.000000
vn 0.000000 0.000000 1.000000
vn 0.000000 0.000000 1.000000
vn 0.000000 0.000000 1.000000
vn 0.000000 0.000000 1.000000
vn 0.000000 0.000000 1.000000
vn 0.000000 0.000000 1.000000
vn 0.000000 0.000000 1.000000
vn 0.000000 0.000000 1.000000
vn 0.000000 0.000000 1.000000
vn 0.000000 0.000000 1.000000
vn 0.000000 0.000000 1.000000
vn 0.000000 0.000000 1.000000
vn 0.000000 0.000000 1.000000
vn 0.000000 0.000000 1.000000
vn 0.000000 0.000000 1.000000
vn 0.000000 0.000000 1.000000
vn 0.000000 0.000000 1.000000
vn 0.000000 0.000000 1.000000
vn 0.000000 0.000000 1.000000
vn 0.000000 0.000000 1.000000
vn 0.000000 0.000000 1.000000
vn 0.000000 0.000000 1.000000
vn 0.000000 0.000000 1.000000
vn 0.000000 0.000000 1.000000
vn 0.000000 0.000000 1.000000
vn 0.000000 0.000000 1.000000
vn 0.000000 0.000000 1.000000
vn 0.000000 0.000000 1.000000
vn 0.000000 0.000000 1.000000
vn 0.000000 0.000000 1.000000
vn 0.000000 0.000000 1.000000
vn 0.000000 0.000000 1.000000
vn 0.000000 0.000000 1.000000
vn 0.000000 0.000000 1.000000
vn 0.000000 0.000000 1.000000
vn 0.000000 0.000000 1.000000
vn 0.000000 0.000000 1.000000
vn 0.000000 0.000000 1.000000
vn 0.000000 0.000000 1.000000
vn 0.000000 0.000000 1.000000
vn 0.000000 0.000000 1.000000
vn 0.000000 0.000000 1.000000
vn 0.000000 0.000000 1.000000
vn 0.000000 0.000000 1.000000
vn 0.000000 0.000000 1.000000
vn 0.000000 0.000000 1.000000
vn 0.000000 0.000000 1.000000
vn 0.000000 0.000000 1.000000
vn 0.000000 0.000000 1.000000
vn 0.000000 0.000000 1.000000
vn 0.000000 0.000000 1.000000
vn 0.000000 0.000000 1.000000
vn 0.000000 0.000000 1.000000
vn 0.000000 0.000000 1.000000
vn 0.000000 0.000000 1.000000
vn 0.000000 0.000000 1.000000
vn 0.000000 0.000000 1.000000
vn 0.000000 0.000000 1.000000
vn 0.000000 0.000000 1.000000
vn 0.000000 0.000000 1.000000
vn 0.000000 0.000000 1.000000
vn 0.000000 0.000000 1.000000
vn 0.000000 0.000000 1.000000
vn 0.000000 0.000000 1.000000
vn 0.000000 0.000000 1.000000
vn 0.000000 0.000000 1.000000
vn 0.000000 0.000000 1.000000
vn 0.000000 0.000000 1.000000
vn 0.000000 0.000000 1.000000
vn 0.000000 0.000000 1.000000
vn 0.000000 0.000000 1.000000
vn 0.000000 0.000000 1.000000
vn 0.000000 0.000000 1.000000
vn 0.000000 0.000000 1.000000
vn 0.000000 0.000000 1.000000
vn 0.000000 0.000000 1.000000
vn 0.000000 0.000000 1.000000
vn 0.000000 0.000000 1.000000
vn 0.000000 0.000000 1.000000
vn 0.000000 0.000000 1.000000
vn 0.000000 0.000000 1.000000
vn 0.000000 0.000000 1.000000
vn 0.000000 0.000000 1.000000
vn 0.000000 0.000000 1.000000
vn 0.000000 0.000000 1.000000
vn 0.000000 0.000000 1.000000
vn 0.000000 0.000000 1.000000
vn 0.000000 0.000000 1.000000
vn 0.000000 0.000000 1.000000
vn 0.000000 0.000000 1.000000
vn 0.000000 0.000000 1.000000
vn 0.000000 0.000000 1.000000
vn 0.000000 0.000000 1.000000
vn 0.000000 0.000000 1.000000
vn 0.000000 0.000000 1.000000
vn 0.000000 0.000000 1.000000
vn 0.000000 0.000000 1.000000
vn 0.000000 0.000000 1.000000
vn 0.000000 0.000000 1.000000
vn 0.000000 0.000000 1.000000
vn 0.000000 0.000000 1.000000
vn 0.000000 0.000000 1.000000
vn 0.000000 0.000000 1.000000
vn 0.000000 0.000000 1.000000
vn 0.000000 0.000000 1.000000
vn 0.000000 0.000000 1.000000
vn 0.000000 0.000000 1.000000
vn 0.000000 0.000000 1.000000
vn 0.000000 0.000000 1.000000
vn 0.000000 0.000000 1.000000
vn 0.000000 0.000000 1.000000
vn 0.000000 0.000000 1.000000
vn 0.000000 0.000000 1.000000
vn 0.000000 0.000000 1.000000
vn 0.000000 0.000000 1.000000
vn 0.000000 0.000000 1.000000
vn 0.000000 0.000000 1.000000
vn 0.000000 0.000000 1.000000
vn 0.000000 0.000000 1.000000
vn 0.000000 0.000000 1.000000
vn 0.584033 0.811730 -0.000000
vn 0.584033 0.811730 -0.000000
vn 0.228941 0.973440 -0.000000
vn 0.228941 0.973440 -0.000000
vn 0.923879 -0.382684 0.000000
vn 0.923879 -0.382684 0.000000
vn 0.980785 0.195091 -0.000000
vn 0.980785 0.195091 -0.000000
vn -0.161006 -0.986953 0.000000
vn -0.161006 -0.986953 -0.000000
vn 0.584033 -0.811730 0.000000
vn 0.584033 -0.811730 0.000000
vn 0.831470 -0.555570 0.000000
vn 0.831470 -0.555570 0.000000
vn 0.923879 0.382684 -0.000000
vn 0.923879 0.382684 -0.000000
vn 0.850212 0.526441 -0.000000
vn 0.850212 0.526441 0.000000
vn -0.161006 0.986953 0.000000
vn -0.161006 0.986953 0.000000
vn 0.707107 -0.707107 0.000000
vn 0.707107 -0.707107 -0.000000
vn 0.831470 0.555570 -0.000000
vn 0.831470 0.555570 -0.000000
vn -0.526441 -0.850212 0.000000
vn -0.526441 -0.850212 0.000000
vn 0.850212 -0.526441 0.000000
vn 0.850212 -0.526441 -0.000000
vn 0.555570 -0.831470 0.000000
vn 0.555570 -0.831470 0.000000
vn 0.707107 0.707107 -0.000000
vn 0.707107 0.707107 0.000000
vn 0.986953 0.161006 -0.000000
vn 0.986953 0.161006 -0.000000
vn -0.526441 0.850212 0.000000
vn -0.526441 0.850212 -0.000000
vn 0.382684 -0.923879 0.000000
vn 0.382684 -0.923879 0.000000
vn 0.555570 0.831470 -0.000000
vn 0.555570 0.831470 -0.000000
vn -0.811730 -0.584033 0.000000
vn -0.811730 -0.584033 -0.000000
vn 0.986953 -0.161006 0.000000
vn 0.986953 -0.161006 0.000000
vn 0.195091 -0.980785 0.000000
vn 0.195091 -0.980785 0.000000
vn 0.382684 0.923879 -0.000000
vn 0.382684 0.923879 -0.000000
vn 0.973440 -0.228941 0.000000
vn 0.973440 -0.228941 0.000000
vn -0.811730 0.584033 0.000000
vn -0.811730 0.584033 0.000000
vn 0.000000 -1.000000 0.000000
vn 0.000000 -1.000000 0.000000
vn 0.195091 0.980785 -0.000000
vn 0.195091 0.980785 -0.000000
vn -0.973440 -0.228941 0.000000
vn -0.973440 -0.228941 -0.000000
vn 0.973440 0.228941 -0.000000
vn 0.973440 0.228941 -0.000000
vn -0.195091 -0.980785 0.000000
vn -0.195091 -0.980785 -0.000000
vn 0.000000 1.000000 -0.000000
vn 0.000000 1.000000 0.000000
vn 0.811730 -0.584033 0.000000
vn 0.811730 -0.584033 0.000000
vn -0.973440 0.228941 0.000000
vn -0.973440 0.228941 0.000000
vn -0.382684 -0.923879 0.000000
vn -0.382684 -0.923879 -0.000000
vn -0.195091 0.980785 0.000000
vn -0.195091 0.980785 0.000000
vn -0.986953 0.161006 0.000000
vn -0.986953 0.161006 0.000000
vn 0.811730 0.584033 -0.000000
vn 0.811730 0.584033 -0.000000
vn -0.555570 -0.831470 0.000000
vn -0.555570 -0.831470 -0.000000
vn -0.382684 0.923879 0.000000
vn -0.382684 0.923879 0.000000
vn 0.526441 -0.850212 0.000000
vn 0.526441 -0.850212 -0.000000
vn -0.986953 -0.161006 0.000000
vn -0.986953 -0.161006 -0.000000
vn -0.707107 -0.707107 0.000000
vn -0.707107 -0.707107 0.000000
vn -0.555570 0.831470 0.000000
vn -0.555570 0.831470 0.000000
vn -0.850212 0.526441 0.000000
vn -0.850212 0.526441 -0.000000
vn 0.526441 0.850212 -0.000000
vn 0.526441 0.850212 0.000000
vn -0.831470 -0.555570 0.000000
vn -0.831470 -0.555570 -0.000000
vn -0.707107 0.707107 0.000000
vn -0.707107 0.707107 -0.000000
vn 0.161006 -0.986953 0.000000
vn 0.161006 -0.986953 0.000000
vn -0.850212 -0.526441 0.000000
vn -0.850212 -0.526441 0.000000
vn -0.923879 -0.382684 0.000000
vn -0.923879 -0.382684 -0.000000
vn -0.831470 0.555570 0.000000
vn -0.831470 0.555570 0.000000
vn -0.584033 0.811730 0.000000
vn -0.584033 0.811730 0.000000
vn 0.161006 0.986953 -0.000000
vn 0.161006 0.986953 -0.000000
vn -0.980785 -0.195091 0.000000
vn -0.980785 -0.195091 -0.000000
vn -0.923879 0.382684 0.000000
vn -0.923879 0.382684 0.000000
vn -0.228941 -0.973440 0.000000
vn -0.228941 -0.973440 -0.000000
vn -0.584033 -0.811730 0.000000
vn -0.584033 -0.811730 -0.000000
vn -1.000000 0.000000 0.000000
vn -1.000000 -0.000000 0.000000
vn -0.980785 0.195091 0.000000
vn -0.980785 0.195091 0.000000
vn -0.228941 0.973440 0.000000
vn -0.228941 0.973440 0.000000
vn -0.999689 -0.024932 -0.000000
vn -0.999689 -0.024932 -0.000000
vn -0.997204 -0.074730 -0.000000
vn -0.992239 -0.124342 0.000000
vn -0.997204 -0.074730 -0.000000
vn -0.992239 -0.124342 -0.000000
vn -0.984808 -0.173649 -0.000000
vn -0.974928 -0.222522 0.000000
vn -0.984808 -0.173649 -0.000000
vn -0.974928 -0.222522 -0.000000
vn -0.962624 -0.270840 -0.000000
vn -0.962624 -0.270840 -0.000000
vn -0.947927 -0.318487 0.000000
vn -0.930874 -0.365340 0.000000
vn -0.947927 -0.318487 -0.000000
vn -0.930874 -0.365340 0.000000
vn -0.911506 -0.411287 -0.000000
vn -0.889872 -0.456211 0.000000
vn -0.911506 -0.411287 -0.000000
vn -0.889872 -0.456211 0.000000
vn -0.866026 -0.500000 -0.000000
vn -0.866026 -0.500000 0.000000
vn -0.840026 -0.542546 0.000000
vn -0.840026 -0.542546 -0.000000
vn -0.811938 -0.583744 -0.000000
vn -0.811938 -0.583744 0.000000
vn -0.781831 -0.623491 -0.000000
vn -0.781831 -0.623491 -0.000000
vn -0.749782 -0.661685 0.000000
vn -0.749782 -0.661685 -0.000000
vn -0.715867 -0.698237 0.000000
vn -0.715867 -0.698237 -0.000000
vn -0.680173 -0.733052 -0.000000
vn -0.680173 -0.733052 -0.000000
vn -0.642787 -0.766045 -0.000000
vn -0.642787 -0.766045 0.000000
vn -0.603805 -0.797132 -0.000000
vn -0.603805 -0.797132 0.000000
vn -0.563320 -0.826239 -0.000000
vn -0.563320 -0.826239 -0.000000
vn -0.521436 -0.853291 -0.000000
vn -0.521436 -0.853291 -0.000000
vn -0.478254 -0.878222 -0.000000
vn -0.478254 -0.878222 0.000000
vn -0.433884 -0.900969 -0.000000
vn -0.433884 -0.900969 -0.000000
vn -0.388434 -0.921477 -0.000000
vn -0.388434 -0.921477 -0.000000
vn -0.342021 -0.939692 -0.000000
vn -0.342021 -0.939692 -0.000000
vn -0.294755 -0.955573 0.000000
vn -0.246758 -0.969077 0.000000
vn -0.294755 -0.955573 -0.000000
vn -0.246758 -0.969077 -0.000000
vn -0.198146 -0.980172 -0.000000
vn -0.149041 -0.988831 0.000000
vn -0.198146 -0.980172 -0.000000
vn -0.149041 -0.988831 -0.000000
vn -0.099569 -0.995031 0.000000
vn -0.099569 -0.995031 -0.000000
vn -0.049846 -0.998757 -0.000000
vn 0.000000 -1.000000 0.000000
vn -0.049846 -0.998757 -0.000000
vn -0.000000 -1.000000 0.000000
vn 0.049846 -0.998757 0.000000
vn 0.049846 -0.998757 0.000000
vn 0.099569 -0.995031 -0.000000
vn 0.099569 -0.995031 0.000000
vn 0.149041 -0.988831 0.000000
vn 0.149041 -0.988831 0.000000
vn 0.198146 -0.980172 0.000000
vn 0.198146 -0.980172 0.000000
vn 0.246758 -0.969077 0.000000
vn 0.246758 -0.969077 0.000000
vn 0.294755 -0.955573 0.000000
vn 0.294755 -0.955573 -0.000000
vn 0.342021 -0.939692 0.000000
vn 0.342021 -0.939692 0.000000
vn 0.388434 -0.921477 0.000000
vn 0.388434 -0.921477 0.000000
vn 0.433884 -0.900969 0.000000
vn 0.433884 -0.900969 0.000000
vn 0.478254 -0.878222 0.000000
vn 0.478254 -0.878222 -0.000000
vn 0.521436 -0.853291 0.000000
vn 0.521436 -0.853291 0.000000
vn 0.563320 -0.826239 0.000000
vn 0.563320 -0.826239 0.000000
vn 0.603805 -0.797132 0.000000
vn 0.603805 -0.797132 -0.000000
vn 0.642787 -0.766045 0.000000
vn 0.642787 -0.766045 -0.000000
vn 0.680173 -0.733052 0.000000
vn 0.680173 -0.733052 0.000000
vn 0.715867 -0.698237 0.000000
vn 0.715867 -0.698237 0.000000
vn 0.749782 -0.661685 0.000000
vn 0.749782 -0.661685 0.000000
vn 0.781831 -0.623491 0.000000
vn 0.781831 -0.623491 0.000000
vn 0.811938 -0.583744 0.000000
vn 0.811938 -0.583744 -0.000000
vn 0.840026 -0.542546 0.000000
vn 0.840026 -0.542546 0.000000
vn 0.866026 -0.500000 0.000000
vn 0.866026 -0.500000 -0.000000
vn 0.889872 -0.456211 0.000000
vn 0.889872 -0.456211 -0.000000
vn 0.911506 -0.411287 0.000000
vn 0.911506 -0.411287 0.000000
vn 0.930874 -0.365340 0.000000
vn 0.930874 -0.365340 -0.000000
vn 0.947927 -0.318487 0.000000
vn 0.947927 -0.318487 -0.000000
vn 0.962624 -0.270840 0.000000
vn 0.962624 -0.270840 0.000000
vn 0.974928 -0.222522 0.000000
vn 0.974928 -0.222522 0.000000
vn 0.984808 -0.173649 0.000000
vn 0.992239 -0.124342 0.000000
vn 0.984808 -0.173649 0.000000
vn 0.997204 -0.074730 0.000000
vn 0.992239 -0.124342 0.000000
vn 0.997204 -0.074730 0.000000
vn 0.999689 -0.024932 0.000000
vn 0.999689 -0.024932 0.000000
vn 0.999689 0.024932 -0.000000
vn 0.999689 0.024932 -0.000000
vn 0.997204 0.074730 0.000000
vn 0.997204 0.074730 -0.000000
vn 0.992239 0.124342 -0.000000
vn 0.992239 0.124342 -0.000000
vn 0.984808 0.173649 -0.000000
vn 0.984808 0.173649 -0.000000
vn 0.974928 0.222522 0.000000
vn 0.974928 0.222522 -0.000000
vn 0.962624 0.270840 0.000000
vn 0.962624 0.270840 -0.000000
vn 0.947927 0.318487 -0.000000
vn 0.947927 0.318487 0.000000
vn 0.930874 0.365340 0.000000
vn 0.930874 0.365340 0.000000
vn 0.911506 0.411287 0.000000
vn 0.911506 0.411287 -0.000000
vn 0.889872 0.456211 0.000000
vn 0.889872 0.456211 0.000000
vn 0.866026 0.500000 0.000000
vn 0.866026 0.500000 0.000000
vn 0.840026 0.542546 -0.000000
vn 0.840026 0.542546 0.000000
vn 0.811938 0.583744 0.000000
vn 0.811938 0.583744 0.000000
vn 0.781831 0.623491 -0.000000
vn 0.781831 0.623491 0.000000
vn 0.749782 0.661685 -0.000000
vn 0.749782 0.661685 0.000000
vn 0.715867 0.698237 -0.000000
vn 0.715867 0.698237 0.000000
vn 0.680173 0.733052 -0.000000
vn 0.680173 0.733052 0.000000
vn 0.642787 0.766045 0.000000
vn 0.642787 0.766045 0.000000
vn 0.603805 0.797132 0.000000
vn 0.603805 0.797132 0.000000
vn 0.563320 0.826239 -0.000000
vn 0.521436 0.853291 -0.000000
vn 0.563320 0.826239 0.000000
vn 0.521436 0.853291 -0.000000
vn 0.478254 0.878222 0.000000
vn 0.478254 0.878222 0.000000
vn 0.433884 0.900969 -0.000000
vn 0.388434 0.921477 -0.000000
vn 0.433884 0.900969 0.000000
vn 0.388434 0.921477 -0.000000
vn 0.342021 0.939692 0.000000
vn 0.342021 0.939692 -0.000000
vn 0.294755 0.955573 0.000000
vn 0.294755 0.955573 0.000000
vn 0.246758 0.969077 0.000000
vn 0.246758 0.969077 -0.000000
vn 0.198146 0.980172 -0.000000
vn 0.198146 0.980172 -0.000000
vn 0.149041 0.988831 -0.000000
vn 0.149041 0.988831 -0.000000
vn 0.099569 0.995031 0.000000
vn 0.049846 0.998757 -0.000000
vn 0.099569 0.995031 0.000000
vn 0.049846 0.998757 -0.000000
vn 0.000000 1.000000 0.000000
vn -0.000000 1.000000 0.000000
vn -0.049846 0.998757 0.000000
vn -0.049846 0.998757 0.000000
vn -0.099569 0.995031 -0.000000
vn -0.099569 0.995031 0.000000
vn -0.149041 0.988831 0.000000
vn -0.149041 0.988831 0.000000
vn -0.198146 0.980172 0.000000
vn -0.198146 0.980172 0.000000
vn -0.246758 0.969077 0.000000
vn -0.246758 0.969077 0.000000
vn -0.294755 0.955573 -0.000000
vn -0.294755 0.955573 0.000000
vn -0.342021 0.939692 0.000000
vn -0.388434 0.921477 0.000000
vn -0.342021 0.939692 0.000000
vn -0.433884 0.900969 0.000000
vn -0.388434 0.921477 0.000000
vn -0.478254 0.878222 0.000000
vn -0.433884 0.900969 0.000000
vn -0.478254 0.878222 -0.000000
vn -0.521436 0.853291 0.000000
vn -0.521436 0.853291 0.000000
vn -0.563320 0.826239 0.000000
vn -0.563320 0.826239 0.000000
vn -0.603805 0.797132 -0.000000
vn -0.603805 0.797132 0.000000
vn -0.642787 0.766045 -0.000000
vn -0.642787 0.766045 0.000000
vn -0.680173 0.733052 0.000000
vn -0.680173 0.733052 0.000000
vn -0.715867 0.698237 0.000000
vn -0.749782 0.661685 0.000000
vn -0.715867 0.698237 0.000000
vn -0.749782 0.661685 0.000000
vn -0.781831 0.623491 0.000000
vn -0.781831 0.623491 0.000000
vn -0.811938 0.583744 0.000000
vn -0.811938 0.583744 -0.000000
vn -0.840026 0.542546 0.000000
vn -0.840026 0.542546 0.000000
vn -0.866026 0.500000 0.000000
vn -0.866026 0.500000 -0.000000
vn -0.889872 0.456211 0.000000
vn -0.889872 0.456211 -0.000000
vn -0.911506 0.411287 0.000000
vn -0.911506 0.411287 0.000000
vn -0.930874 0.365340 0.000000
vn -0.930874 0.365340 -0.000000
vn -0.947927 0.318487 0.000000
vn -0.947927 0.318487 -0.000000
vn -0.962624 0.270840 0.000000
vn -0.962624 0.270840 0.000000
vn -0.974928 0.222522 0.000000
vn -0.974928 0.222522 0.000000
vn -0.984808 0.173649 0.000000
vn -0.984808 0.173649 0.000000
vn -0.992239 0.124342 0.000000
vn -0.992239 0.124342 0.000000
vn -0.997204 0.074730 0.000000
vn -0.997204 0.074730 0.000000
vn -0.999689 0.024932 0.000000
vn -0.999689 0.024932 0.000000
f 1//1 2//1 3//1
f 3//2 2//2 4//2
f 5//3 1//3 6//3
f 6//4 1//4 3//4
f 2//5 7//5 4//5
f 4//6 7//6 8//6
f 9//7 10//7 11//7
f 10//8 12//8 11//8
f 13//9 14//9 15//9
f 16//10 17//10 18//10
f 17//11 19//11 18//11
f 13//12 20//12 14//12
f 21//13 22//13 23//13
f 23//14 22//14 24//14
f 25//15 26//15 27//15
f 27//16 26//16 28//16
f 10//17 29//17 12//17
f 10//18 30//18 29//18
f 29//19 31//19 12//19
f 10//20 32//20 30//20
f 31//21 33//21 12//21
f 10//22 34//22 32//22
f 33//23 35//23 12//23
f 10//24 36//24 34//24
f 14//25 36//25 10//25
f 12//26 37//26 17//26
f 35//27 37//27 12//27
f 14//28 38//28 36//28
f 37//29 39//29 17//29
f 14//30 40//30 38//30
f 39//31 41//31 17//31
f 14//32 42//32 40//32
f 41//33 43//33 17//33
f 20//34 44//34 14//34
f 14//35 44//35 42//35
f 17//36 45//36 19//36
f 43//37 45//37 17//37
f 20//38 46//38 44//38
f 45//39 47//39 19//39
f 20//40 48//40 46//40
f 47//41 49//41 19//41
f 20//42 50//42 48//42
f 49//43 51//43 19//43
f 24//44 52//44 20//44
f 20//45 52//45 50//45
f 19//46 53//46 25//46
f 51//47 53//47 19//47
f 24//48 54//48 52//48
f 53//49 55//49 25//49
f 24//50 56//50 54//50
f 55//51 57//51 25//51
f 58//52 59//52 60//52
f 60//53 59//53 61//53
f 62//54 63//54 64//54
f 64//55 63//55 65//55
f 24//56 66//56 56//56
f 25//57 67//57 26//57
f 57//58 67//58 25//58
f 22//59 68//59 24//59
f 24//60 68//60 66//60
f 67//61 69//61 26//61
f 22//62 70//62 68//62
f 69//63 71//63 26//63
f 22//64 72//64 70//64
f 71//65 73//65 26//65
f 22//66 74//66 72//66
f 73//67 75//67 26//67
f 26//68 75//68 62//68
f 22//69 76//69 74//69
f 61//70 76//70 22//70
f 75//71 77//71 62//71
f 61//72 78//72 76//72
f 77//73 79//73 62//73
f 61//74 80//74 78//74
f 79//75 81//75 62//75
f 61//76 82//76 80//76
f 81//77 83//77 62//77
f 62//78 83//78 63//78
f 59//79 84//79 61//79
f 61//80 84//80 82//80
f 83//81 85//81 63//81
f 59//82 86//82 84//82
f 85//83 87//83 63//83
f 59//84 88//84 86//84
f 87//85 89//85 63//85
f 59//86 90//86 88//86
f 63//87 91//87 92//87
f 89//88 91//88 63//88
f 59//89 93//89 90//89
f 94//90 93//90 59//90
f 91//91 95//91 92//91
f 94//92 96//92 93//92
f 95//93 97//93 92//93
f 94//94 98//94 96//94
f 97//95 99//95 92//95
f 94//96 100//96 98//96
f 99//97 101//97 92//97
f 94//98 102//98 100//98
f 92//99 103//99 104//99
f 105//100 106//100 107//100
f 108//101 106//101 105//101
f 109//102 106//102 108//102
f 102//103 106//103 109//103
f 110//104 106//104 111//104
f 111//105 106//105 94//105
f 94//106 106//106 102//106
f 92//107 112//107 103//107
f 113//108 112//108 101//108
f 114//109 112//109 113//109
f 115//110 112//110 114//110
f 116//111 112//111 115//111
f 101//112 112//112 92//112
f 117//113 118//113 119//113
f 120//114 118//114 117//114
f 121//115 118//115 120//115
f 107//116 118//116 121//116
f 106//117 118//117 107//117
f 116//118 122//118 112//118
f 123//119 122//119 116//119
f 124//120 122//120 123//120
f 125//121 122//121 124//121
f 126//122 122//122 125//122
f 127//123 128//123 129//123
f 130//124 128//124 127//124
f 119//125 128//125 130//125
f 118//126 128//126 119//126
f 129//127 128//127 131//127
f 132//128 5//128 126//128
f 133//129 5//129 132//129
f 134//130 5//130 133//130
f 135//131 5//131 134//131
f 126//132 5//132 122//132
f 136//133 1//133 135//133
f 137//134 1//134 136//134
f 138//135 1//135 137//135
f 139//136 1//136 138//136
f 135//137 1//137 5//137
f 128//138 140//138 131//138
f 141//139 140//139 142//139
f 143//140 140//140 141//140
f 144//141 140//141 143//141
f 131//142 140//142 144//142
f 145//143 146//143 118//143
f 118//144 146//144 128//144
f 5//145 147//145 122//145
f 122//146 147//146 148//146
f 139//147 149//147 1//147
f 150//148 149//148 139//148
f 151//149 149//149 150//149
f 152//150 149//150 151//150
f 153//151 149//151 152//151
f 140//152 154//152 142//152
f 155//153 154//153 156//153
f 157//154 154//154 155//154
f 142//155 154//155 157//155
f 149//156 2//156 1//156
f 140//157 158//157 154//157
f 153//158 159//158 149//158
f 160//159 159//159 153//159
f 161//160 159//160 160//160
f 162//161 159//161 161//161
f 163//162 159//162 162//162
f 154//163 164//163 156//163
f 165//164 164//164 166//164
f 167//165 164//165 165//165
f 168//166 164//166 167//166
f 156//167 164//167 168//167
f 164//168 169//168 166//168
f 170//169 169//169 171//169
f 172//170 169//170 170//170
f 173//171 169//171 172//171
f 166//172 169//172 173//172
f 174//173 175//173 163//173
f 176//174 175//174 174//174
f 177//175 175//175 176//175
f 178//176 175//176 177//176
f 163//177 175//177 159//177
f 149//178 7//178 2//178
f 158//179 179//179 154//179
f 180//180 181//180 178//180
f 182//181 181//181 180//181
f 183//182 181//182 182//182
f 184//183 181//183 183//183
f 178//184 181//184 175//184
f 184//185 185//185 181//185
f 186//186 185//186 184//186
f 187//187 185//187 186//187
f 188//188 185//188 187//188
f 171//189 185//189 188//189
f 169//190 185//190 171//190
f 164//191 189//191 169//191
f 175//192 190//192 159//192
f 175//193 191//193 190//193
f 189//194 192//194 169//194
f 193//195 194//195 185//195
f 185//196 194//196 181//196
f 195//197 196//197 197//197
f 198//198 195//198 197//198
f 199//199 200//199 201//199
f 202//200 203//200 204//200
f 205//201 202//201 204//201
f 206//202 200//202 199//202
f 207//203 208//203 209//203
f 207//204 209//204 210//204
f 211//205 212//205 213//205
f 211//206 213//206 214//206
f 215//207 195//207 198//207
f 216//208 195//208 215//208
f 217//209 215//209 198//209
f 218//210 195//210 216//210
f 219//211 217//211 198//211
f 220//212 195//212 218//212
f 221//213 219//213 198//213
f 222//214 195//214 220//214
f 222//215 199//215 195//215
f 223//216 198//216 202//216
f 223//217 221//217 198//217
f 224//218 199//218 222//218
f 225//219 223//219 202//219
f 226//220 199//220 224//220
f 227//221 225//221 202//221
f 228//222 199//222 226//222
f 229//223 227//223 202//223
f 230//224 206//224 199//224
f 230//225 199//225 228//225
f 231//226 202//226 205//226
f 231//227 229//227 202//227
f 232//228 206//228 230//228
f 233//229 231//229 205//229
f 234//230 206//230 232//230
f 235//231 233//231 205//231
f 236//232 206//232 234//232
f 237//233 235//233 205//233
f 238//234 210//234 206//234
f 238//235 206//235 236//235
f 239//236 205//236 212//236
f 239//237 237//237 205//237
f 240//238 210//238 238//238
f 241//239 239//239 212//239
f 242//240 210//240 240//240
f 243//241 241//241 212//241
f 244//242 245//242 246//242
f 244//243 246//243 247//243
f 248//244 249//244 250//244
f 248//245 250//245 251//245
f 252//246 210//246 242//246
f 253//247 212//247 211//247
f 253//248 243//248 212//248
f 254//249 207//249 210//249
f 254//250 210//250 252//250
f 255//251 253//251 211//251
f 256//252 207//252 254//252
f 257//253 255//253 211//253
f 258//254 207//254 256//254
f 259//255 257//255 211//255
f 260//256 207//256 258//256
f 261//257 259//257 211//257
f 261//258 211//258 249//258
f 262//259 207//259 260//259
f 262//260 247//260 207//260
f 263//261 261//261 249//261
f 264//262 247//262 262//262
f 265//263 263//263 249//263
f 266//264 247//264 264//264
f 267//265 265//265 249//265
f 268//266 247//266 266//266
f 269//267 267//267 249//267
f 269//268 249//268 248//268
f 270//269 244//269 247//269
f 270//270 247//270 268//270
f 271//271 269//271 248//271
f 272//272 244//272 270//272
f 273//273 271//273 248//273
f 274//274 244//274 272//274
f 275//275 273//275 248//275
f 276//276 244//276 274//276
f 277//277 248//277 278//277
f 277//278 275//278 248//278
f 279//279 244//279 276//279
f 279//280 280//280 244//280
f 281//281 277//281 278//281
f 282//282 280//282 279//282
f 283//283 281//283 278//283
f 284//284 280//284 282//284
f 285//285 283//285 278//285
f 286//286 280//286 284//286
f 287//287 285//287 278//287
f 288//288 280//288 286//288
f 289//289 278//289 290//289
f 291//290 292//290 293//290
f 291//291 294//291 292//291
f 291//292 295//292 294//292
f 291//293 288//293 295//293
f 291//294 296//294 297//294
f 291//295 297//295 280//295
f 291//296 280//296 288//296
f 298//297 278//297 289//297
f 298//298 299//298 287//298
f 298//299 300//299 299//299
f 298//300 301//300 300//300
f 298//301 302//301 301//301
f 298//302 287//302 278//302
f 303//303 304//303 305//303
f 303//304 306//304 304//304
f 303//305 307//305 306//305
f 303//306 293//306 307//306
f 303//307 291//307 293//307
f 308//308 302//308 298//308
f 308//309 309//309 302//309
f 308//310 310//310 309//310
f 308//311 311//311 310//311
f 308//312 312//312 311//312
f 313//313 314//313 315//313
f 313//314 316//314 314//314
f 313//315 305//315 316//315
f 313//316 303//316 305//316
f 313//317 315//317 317//317
f 6//318 318//318 312//318
f 6//319 319//319 318//319
f 6//320 320//320 319//320
f 6//321 321//321 320//321
f 6//322 312//322 308//322
f 3//323 322//323 321//323
f 3//324 323//324 322//324
f 3//325 324//325 323//325
f 3//326 325//326 324//326
f 3//327 321//327 6//327
f 326//328 313//328 317//328
f 326//329 327//329 328//329
f 326//330 329//330 327//330
f 326//331 330//331 329//331
f 326//332 317//332 330//332
f 331//333 332//333 303//333
f 331//334 303//334 313//334
f 333//335 6//335 308//335
f 333//336 308//336 334//336
f 335//337 325//337 3//337
f 335//338 336//338 325//338
f 335//339 337//339 336//339
f 335//340 338//340 337//340
f 335//341 339//341 338//341
f 340//342 326//342 328//342
f 340//343 341//343 342//343
f 340//344 343//344 341//344
f 340//345 328//345 343//345
f 4//346 335//346 3//346
f 344//347 326//347 340//347
f 345//348 339//348 335//348
f 345//349 346//349 339//349
f 345//350 347//350 346//350
f 345//351 348//351 347//351
f 345//352 349//352 348//352
f 350//353 340//353 342//353
f 350//354 351//354 352//354
f 350//355 353//355 351//355
f 350//356 354//356 353//356
f 350//357 342//357 354//357
f 355//358 350//358 352//358
f 355//359 356//359 357//359
f 355//360 358//360 356//360
f 355//361 359//361 358//361
f 355//362 352//362 359//362
f 360//363 361//363 349//363
f 360//364 362//364 361//364
f 360//365 363//365 362//365
f 360//366 364//366 363//366
f 360//367 349//367 345//367
f 8//368 335//368 4//368
f 365//369 344//369 340//369
f 366//370 367//370 364//370
f 366//371 368//371 367//371
f 366//372 369//372 368//372
f 366//373 370//373 369//373
f 366//374 364//374 360//374
f 371//375 370//375 366//375
f 371//376 372//376 370//376
f 371//377 373//377 372//377
f 371//378 374//378 373//378
f 371//379 357//379 374//379
f 371//380 355//380 357//380
f 375//381 350//381 355//381
f 376//382 360//382 345//382
f 377//383 360//383 376//383
f 378//384 375//384 355//384
f 379//385 380//385 371//385
f 379//386 371//386 366//386
f 147//387 5//387 333//387
f 333//388 5//388 6//388
f 7//389 149//389 8//389
f 8//390 149//390 335//390
f 148//391 147//391 334//391
f 334//392 147//392 333//392
f 149//393 159//393 335//393
f 335//394 159//394 345//394
f 122//395 148//395 308//395
f 308//396 148//396 334//396
f 159//397 190//397 345//397
f 345//398 190//398 376//398
f 112//399 122//399 298//399
f 298//400 122//400 308//400
f 190//401 191//401 376//401
f 376//402 191//402 377//402
f 103//403 112//403 289//403
f 289//404 112//404 298//404
f 191//405 175//405 377//405
f 377//406 175//406 360//406
f 104//407 103//407 290//407
f 290//408 103//408 289//408
f 175//409 181//409 360//409
f 360//410 181//410 366//410
f 92//411 104//411 278//411
f 278//412 104//412 290//412
f 181//413 194//413 366//413
f 366//414 194//414 379//414
f 63//415 92//415 248//415
f 248//416 92//416 278//416
f 194//417 193//417 379//417
f 379//418 193//418 380//418
f 65//419 63//419 251//419
f 251//420 63//420 248//420
f 193//421 185//421 380//421
f 380//422 185//422 371//422
f 64//423 65//423 250//423
f 250//424 65//424 251//424
f 185//425 169//425 371//425
f 371//426 169//426 355//426
f 62//427 64//427 249//427
f 249//428 64//428 250//428
f 169//429 192//429 355//429
f 355//430 192//430 378//430
f 26//431 62//431 211//431
f 211//432 62//432 249//432
f 192//433 189//433 378//433
f 378//434 189//434 375//434
f 28//435 26//435 214//435
f 214//436 26//436 211//436
f 189//437 164//437 375//437
f 375//438 164//438 350//438
f 27//439 28//439 213//439
f 213//440 28//440 214//440
f 164//441 154//441 350//441
f 350//442 154//442 340//442
f 25//443 27//443 212//443
f 212//444 27//444 213//444
f 154//445 179//445 340//445
f 340//446 179//446 365//446
f 19//447 25//447 205//447
f 205//448 25//448 212//448
f 179//449 158//449 365//449
f 365//450 158//450 344//450
f 18//451 19//451 204//451
f 204//452 19//452 205//452
f 158//453 140//453 344//453
f 344//454 140//454 326//454
f 16//455 18//455 203//455
f 203//456 18//456 204//456
f 140//457 128//457 326//457
f 326//458 128//458 313//458
f 17//459 16//459 202//459
f 202//460 16//460 203//460
f 128//461 146//461 313//461
f 313//462 146//462 331//462
f 12//463 17//463 198//463
f 198//464 17//464 202//464
f 146//465 145//465 331//465
f 331//466 145//466 332//466
f 11//467 12//467 197//467
f 197//468 12//468 198//468
f 145//469 118//469 332//469
f 332//470 118//470 303//470
f 9//471 11//471 196//471
f 196//472 11//472 197//472
f 118//473 106//473 303//473
f 303//474 106//474 291//474
f 10//475 9//475 195//475
f 195//476 9//476 196//476
f 106//477 110//477 291//477
f 291//478 110//478 296//478
f 14//479 10//479 199//479
f 199//480 10//480 195//480
f 110//481 111//481 296//481
f 296//482 111//482 297//482
f 15//483 14//483 201//483
f 201//484 14//484 199//484
f 111//485 94//485 297//485
f 297//486 94//486 280//486
f 13//487 15//487 200//487
f 200//488 15//488 201//488
f 94//489 59//489 280//489
f 280//490 59//490 244//490
f 20//491 13//491 206//491
f 206//492 13//492 200//492
f 59//493 58//493 244//493
f 244//494 58//494 245//494
f 24//495 20//495 210//495
f 210//496 20//496 206//496
f 58//497 60//497 245//497
f 245//498 60//498 246//498
f 23//499 24//499 209//499
f 209//500 24//500 210//500
f 60//501 61//501 246//501
f 246//502 61//502 247//502
f 21//503 23//503 208//503
f 208//504 23//504 209//504
f 61//505 22//505 247//505
f 247//506 22//506 207//506
f 22//507 21//507 207//507
f 207//508 21//508 208//508
f 325//509 336//509 139//509
f 139//510 336//510 150//510
f 150//511 337//511 151//511
f 151//512 337//512 152//512
f 336//513 337//513 150//513
f 337//514 338//514 152//514
f 152//515 339//515 153//515
f 153//516 339//516 160//516
f 338//517 339//517 152//517
f 339//518 346//518 160//518
f 160//519 347//519 161//519
f 346//520 347//520 160//520
f 161//521 348//521 162//521
f 162//522 348//522 163//522
f 347//523 348//523 161//523
f 348//524 349//524 163//524
f 163//525 361//525 174//525
f 174//526 361//526 176//526
f 349//527 361//527 163//527
f 361//528 362//528 176//528
f 362//529 363//529 176//529
f 176//530 363//530 177//530
f 177//531 363//531 178//531
f 363//532 364//532 178//532
f 364//533 367//533 178//533
f 178//534 367//534 180//534
f 367//535 368//535 180//535
f 180//536 368//536 182//536
f 182//537 368//537 183//537
f 368//538 369//538 183//538
f 183//539 369//539 184//539
f 369//540 370//540 184//540
f 370//541 372//541 184//541
f 184//542 372//542 186//542
f 372//543 373//543 186//543
f 186//544 373//544 187//544
f 373//545 374//545 187//545
f 187//546 374//546 188//546
f 374//547 357//547 188//547
f 188//548 357//548 171//548
f 357//549 356//549 171//549
f 171//550 356//550 170//550
f 356//551 358//551 170//551
f 170//552 358//552 172//552
f 172//553 359//553 173//553
f 358//554 359//554 172//554
f 173//555 352//555 166//555
f 359//556 352//556 173//556
f 166//557 351//557 165//557
f 352//558 351//558 166//558
f 165//559 353//559 167//559
f 167//560 353//560 168//560
f 351//561 353//561 165//561
f 353//562 354//562 168//562
f 168//563 342//563 156//563
f 156//564 342//564 155//564
f 354//565 342//565 168//565
f 342//566 341//566 155//566
f 155//567 343//567 157//567
f 341//568 343//568 155//568
f 157//569 328//569 142//569
f 142//570 328//570 141//570
f 343//571 328//571 157//571
f 328//572 327//572 141//572
f 141//573 329//573 143//573
f 327//574 329//574 141//574
f 143//575 330//575 144//575
f 329//576 330//576 143//576
f 144//577 317//577 131//577
f 330//578 317//578 144//578
f 131//579 315//579 129//579
f 317//580 315//580 131//580
f 315//581 314//581 129//581
f 129//582 314//582 127//582
f 314//583 316//583 127//583
f 127//584 316//584 130//584
f 130//585 316//585 119//585
f 316//586 305//586 119//586
f 305//587 304//587 119//587
f 119//588 304//588 117//588
f 304//589 306//589 117//589
f 117//590 306//590 120//590
f 306//591 307//591 120//591
f 120//592 307//592 121//592
f 307//593 293//593 121//593
f 121//594 293//594 107//594
f 293//595 292//595 107//595
f 107//596 292//596 105//596
f 292//597 294//597 105//597
f 105//598 294//598 108//598
f 108//599 294//599 109//599
f 294//600 295//600 109//600
f 295//601 288//601 109//601
f 109//602 288//602 102//602
f 288//603 286//603 102//603
f 102//604 286//604 100//604
f 286//605 284//605 100//605
f 100//606 284//606 98//606
f 284//607 282//607 98//607
f 98//608 282//608 96//608
f 96//609 282//609 93//609
f 282//610 279//610 93//610
f 279//611 276//611 93//611
f 93//612 276//612 90//612
f 90//613 276//613 88//613
f 276//614 274//614 88//614
f 274//615 272//615 88//615
f 88//616 272//616 86//616
f 272//617 270//617 86//617
f 86//618 270//618 84//618
f 270//619 268//619 84//619
f 84//620 268//620 82//620
f 268//621 266//621 82//621
f 82//622 266//622 80//622
f 80//623 266//623 78//623
f 266//624 264//624 78//624
f 78//625 262//625 76//625
f 264//626 262//626 78//626
f 76//627 260//627 74//627
f 74//628 260//628 72//628
f 262//629 260//629 76//629
f 72//630 258//630 70//630
f 260//631 258//631 72//631
f 258//632 256//632 70//632
f 70//633 256//633 68//633
f 256//634 254//634 68//634
f 68//635 254//635 66//635
f 254//636 252//636 66//636
f 252//637 242//637 66//637
f 66//638 242//638 56//638
f 56//639 242//639 54//639
f 242//640 240//640 54//640
f 54//641 240//641 52//641
f 240//642 238//642 52//642
f 238//643 236//643 52//643
f 52//644 236//644 50//644
f 236//645 234//645 50//645
f 50//646 234//646 48//646
f 48//647 234//647 46//647
f 234//648 232//648 46//648
f 232//649 230//649 46//649
f 46//650 230//650 44//650
f 230//651 228//651 44//651
f 44//652 228//652 42//652
f 228//653 226//653 42//653
f 42//654 226//654 40//654
f 226//655 224//655 40//655
f 40//656 224//656 38//656
f 38//657 222//657 36//657
f 224//658 222//658 38//658
f 36//659 220//659 34//659
f 222//660 220//660 36//660
f 34//661 218//661 32//661
f 220//662 218//662 34//662
f 32//663 216//663 30//663
f 218//664 216//664 32//664
f 30//665 215//665 29//665
f 216//666 215//666 30//666
f 29//667 217//667 31//667
f 215//668 217//668 29//668
f 31//669 219//669 33//669
f 217//670 219//670 31//670
f 33//671 221//671 35//671
f 219//672 221//672 33//672
f 35//673 223//673 37//673
f 37//674 223//674 39//674
f 221//675 223//675 35//675
f 223//676 225//676 39//676
f 39//677 227//677 41//677
f 225//678 227//678 39//678
f 41//679 229//679 43//679
f 43//680 229//680 45//680
f 227//681 229//681 41//681
f 229//682 231//682 45//682
f 231//683 233//683 45//683
f 45//684 233//684 47//684
f 233//685 235//685 47//685
f 47//686 235//686 49//686
f 235//687 237//687 49//687
f 49//688 237//688 51//688
f 51//689 237//689 53//689
f 237//690 239//690 53//690
f 53//691 239//691 55//691
f 239//692 241//692 55//692
f 55//693 243//693 57//693
f 57//694 243//694 67//694
f 241//695 243//695 55//695
f 243//696 253//696 67//696
f 67//697 255//697 69//697
f 253//698 255//698 67//698
f 69//699 257//699 71//699
f 255//700 257//700 69//700
f 71//701 259//701 73//701
f 257//702 259//702 71//702
f 73//703 261//703 75//703
f 259//704 261//704 73//704
f 75//705 263//705 77//705
f 261//706 263//706 75//706
f 77//707 265//707 79//707
f 263//708 265//708 77//708
f 79//709 267//709 81//709
f 265//710 267//710 79//710
f 81//711 269//711 83//711
f 83//712 269//712 85//712
f 267//713 269//713 81//713
f 85//714 271//714 87//714
f 269//715 271//715 85//715
f 87//716 273//716 89//716
f 271//717 273//717 87//717
f 273//718 275//718 89//718
f 89//719 277//719 91//719
f 275//720 277//720 89//720
f 91//721 281//721 95//721
f 277//722 281//722 91//722
f 95//723 283//723 97//723
f 281//724 283//724 95//724
f 97//725 285//725 99//725
f 283//726 285//726 97//726
f 99//727 287//727 101//727
f 285//728 287//728 99//728
f 101//729 299//729 113//729
f 113//730 299//730 114//730
f 287//731 299//731 101//731
f 299//732 300//732 114//732
f 300//733 301//733 114//733
f 114//734 301//734 115//734
f 115//735 301//735 116//735
f 301//736 302//736 116//736
f 302//737 309//737 116//737
f 116//738 309//738 123//738
f 309//739 310//739 123//739
f 123//740 310//740 124//740
f 124//741 310//741 125//741
f 310//742 311//742 125//742
f 311//743 312//743 125//743
f 125//744 312//744 126//744
f 312//745 318//745 126//745
f 126//746 318//746 132//746
f 132//747 318//747 133//747
f 318//748 319//748 133//748
f 319//749 320//749 133//749
f 133//750 320//750 134//750
f 320//751 321//751 134//751
f 134//752 321//752 135//752
f 321//753 322//753 135//753
f 135//754 322//754 136//754
f 322//755 323//755 136//755
f 136//756 323//756 137//756
f 137//757 324//757 138//757
f 323//758 324//758 137//758
f 138//759 325//759 139//759
f 324//760 325//760 138//760
